<?xml version="1.0" encoding="utf-8"?>
<!-- Generator: Adobe Illustrator 23.0.1, SVG Export Plug-In . SVG Version: 6.00 Build 0)  -->
<svg version="1.1" id="Layer_1" xmlns="http://www.w3.org/2000/svg" xmlns:xlink="http://www.w3.org/1999/xlink" x="0px" y="0px"
	 viewBox="0 0 128 128" style="enable-background:new 0 0 128 128;" xml:space="preserve">
<style type="text/css">
	.st0{fill:#FFFFFF;}
	.st1{fill:#53565A;}
	.st2{fill:#00C0F3;}
	.st3{fill:#A7A8AA;}
	.st4{fill:#00749A;}
	.st5{fill:#464342;}
	.st6{fill:#3FA5BF;}
</style>
<g>
	<path class="st0" d="M71.7,91.5h-3.9v0.4c1.2,0,1.4,0.3,1.4,1.8v2.8c0,1.6-0.2,1.8-1.4,1.8c-0.9-0.1-1.6-0.6-2.5-1.6l-1-1.1
		c1.4-0.2,2.1-1.1,2.1-2.1c0-1.2-1-2.1-3-2.1h-3.9v0.4c1.2,0,1.4,0.3,1.4,1.8v2.8c0,1.6-0.2,1.8-1.4,1.8v0.4h4.4v-0.4
		c-1.2,0-1.4-0.3-1.4-1.8v-0.8h0.4l2.4,3.1h6.4c3.1,0,4.5-1.7,4.5-3.7C76.2,93.1,74.8,91.5,71.7,91.5z M62.5,95.1v-2.9h0.9
		c1,0,1.4,0.7,1.4,1.5s-0.4,1.5-1.4,1.5L62.5,95.1L62.5,95.1z M71.7,98.1h-0.2c-0.8,0-0.9-0.2-0.9-1.2v-4.8c0,0,1,0,1.1,0
		c2.3,0,2.7,1.7,2.7,3C74.4,96.5,74,98.1,71.7,98.1z"/>
	<path class="st0" d="M47.3,95.9l1.5-4.5c0.4-1.3,0.2-1.7-1.2-1.7v-0.4h4.1v0.4c-1.4,0-1.7,0.3-2.3,1.9l-2.5,7.5h-0.3l-2.2-6.9
		l-2.3,6.9h-0.2l-2.4-7.5c-0.5-1.6-0.9-1.9-2.2-1.9v-0.4h4.9v0.4c-1.3,0-1.6,0.3-1.2,1.7l1.5,4.5l2.2-6.6h0.4L47.3,95.9z"/>
	<path class="st0" d="M54.7,99.1c-2.4,0-4.4-1.8-4.4-4s2-3.9,4.4-3.9s4.4,1.8,4.4,3.9C59.1,97.3,57.2,99.1,54.7,99.1z M54.7,91.9
		c-2,0-2.7,1.8-2.7,3.3s0.7,3.3,2.7,3.3s2.7-1.8,2.7-3.3C57.5,93.7,56.8,91.9,54.7,91.9z"/>
	<path class="st0" d="M81.6,98.4v0.4h-5v-0.4c1.5,0,1.7-0.4,1.7-2.6v-3.5c0-2.2-0.3-2.6-1.7-2.6v-0.4h4.6c2.3,0,3.5,1.2,3.5,2.7
		s-1.3,2.7-3.5,2.7h-1.3v1.1C79.9,98,80.1,98.4,81.6,98.4z M81.1,90.1h-1.2v3.8h1.3c1.2,0,1.8-0.9,1.8-1.9
		C82.9,91,82.4,90.1,81.1,90.1z"/>
	<path class="st0" d="M99.8,96.8l-0.1,0.4c-0.2,0.7-0.4,1-2,1h-0.3c-1.1,0-1.3-0.3-1.3-1.8v-1c1.7,0,1.8,0.2,1.8,1.3h0.4v-3.3h-0.4
		c0,1.1-0.1,1.3-1.8,1.3v-2.5h1.2c1.6,0,1.8,0.3,2,1l0.1,0.4h0.4l-0.2-2.1h-6.5v0.4c1.2,0,1.4,0.3,1.4,1.8v2.8
		c0,1.4-0.2,1.8-1.1,1.8c-0.9-0.1-1.6-0.6-2.4-1.6l-1-1.1c1.4-0.2,2.1-1.1,2.1-2.1c0-1.2-1-2.1-3-2.1h-3.9v0.4
		c1.2,0,1.4,0.3,1.4,1.8v2.8c0,1.6-0.2,1.8-1.4,1.8v0.4h4.4v-0.4c-1.2,0-1.4-0.3-1.4-1.8v-0.8h0.4l2.4,3.1h9l0.1-2.1h-0.3V96.8z
		 M88.1,95.1v-2.9H89c1,0,1.4,0.7,1.4,1.5S90,95.2,89,95.2L88.1,95.1L88.1,95.1z"/>
	<path class="st0" d="M104.2,99.1c-0.9,0-1.6-0.5-2-0.7c-0.1,0.1-0.3,0.4-0.4,0.7h-0.4v-3h0.4c0.2,1.5,1.2,2.3,2.5,2.3
		c0.7,0,1.3-0.4,1.3-1.1c0-0.6-0.5-1-1.4-1.4l-1.3-0.6c-0.9-0.4-1.5-1.1-1.5-2.1c0-1.1,1-2,2.4-2c0.7,0,1.3,0.3,1.7,0.6
		c0.1-0.1,0.2-0.3,0.3-0.6h0.4v2.6h-0.5c-0.2-1-0.7-1.9-1.9-1.9c-0.6,0-1.2,0.4-1.2,0.9c0,0.6,0.5,0.9,1.5,1.4l1.2,0.6
		c1.1,0.5,1.5,1.3,1.5,2C106.9,98.1,105.7,99.1,104.2,99.1z"/>
	<path class="st0" d="M111,99.1c-0.9,0-1.6-0.5-2-0.7c-0.1,0.1-0.3,0.4-0.4,0.7h-0.4v-3h0.4c0.2,1.5,1.2,2.3,2.5,2.3
		c0.7,0,1.3-0.4,1.3-1.1c0-0.6-0.5-1-1.4-1.4l-1.3-0.6c-0.9-0.4-1.5-1.1-1.5-2.1c0-1.1,1-2,2.4-2c0.7,0,1.3,0.3,1.7,0.6
		c0.1-0.1,0.2-0.3,0.3-0.6h0.4v2.6h-0.5c-0.2-1-0.7-1.9-1.9-1.9c-0.6,0-1.2,0.4-1.2,0.9c0,0.6,0.5,0.9,1.5,1.4l1.2,0.6
		c1.1,0.5,1.5,1.3,1.5,2C113.7,98.1,112.5,99.1,111,99.1z"/>
	<g>
		<path class="st0" d="M15.3,93.9c0,3.9,2.2,7.2,5.5,8.8L16.2,90C15.6,91.2,15.3,92.5,15.3,93.9z"/>
		<path class="st0" d="M31.6,93.4c0-1.2-0.4-2-0.8-2.7c-0.5-0.8-1-1.5-1-2.3c0-0.9,0.7-1.7,1.6-1.7h0.1c-1.7-1.6-4-2.6-6.6-2.6
			c-3.4,0-6.4,1.7-8.1,4.4c0.2,0,0.4,0,0.6,0c1,0,2.6-0.1,2.6-0.1c0.5,0,0.6,0.7,0.1,0.8c0,0-0.5,0.1-1.1,0.1l3.5,10.5l2.1-6.4
			l-1.5-4.2c-0.5,0-1-0.1-1-0.1c-0.5,0-0.5-0.8,0.1-0.8c0,0,1.6,0.1,2.6,0.1s2.6-0.1,2.6-0.1c0.5,0,0.6,0.7,0.1,0.8
			c0,0-0.5,0.1-1.1,0.1l3.5,10.6l1-3.2C31.3,95.2,31.6,94.3,31.6,93.4z"/>
		<path class="st0" d="M25.2,94.8l-2.9,8.5c0.9,0.3,1.8,0.4,2.7,0.4c1.1,0,2.2-0.2,3.2-0.6c0,0,0-0.1-0.1-0.1L25.2,94.8z"/>
		<path class="st0" d="M33.6,89.2c0,0.3,0.1,0.6,0.1,1c0,1-0.2,2.1-0.7,3.5l-3,8.6c2.9-1.7,4.8-4.8,4.8-8.4
			C34.7,92.2,34.3,90.6,33.6,89.2z"/>
		<path class="st0" d="M25,82.6c-6.3,0-11.3,5.1-11.3,11.3c0,6.3,5.1,11.3,11.3,11.3c6.3,0,11.3-5.1,11.3-11.3
			C36.4,87.7,31.3,82.6,25,82.6z M25,104.7c-6,0-10.8-4.9-10.8-10.8c0-6,4.9-10.8,10.8-10.8c6,0,10.8,4.9,10.8,10.8
			C35.8,99.9,31,104.7,25,104.7z"/>
	</g>
</g>
<g>
	<g>
		<g>
			<path class="st1" d="M32.8,31.2h-2.4c-0.3,0-0.5,0.2-0.5,0.5V32c0,0.3,0.2,0.5,0.5,0.5h1.3v1.2c-0.4,0.2-0.9,0.3-1.3,0.3
				c-1.5,0-2.4-1.1-2.4-2.4c0-1.3,1-2.4,2.3-2.4c0.4,0,0.8,0,1.4,0.3c0.3,0.1,0.5,0.1,0.7-0.2l0.3-0.3c0.2-0.3,0.2-0.5-0.1-0.7
				c-0.7-0.4-1.4-0.6-2.3-0.6c-2.4,0-4.1,1.8-4.1,3.9c0,2.1,1.7,3.9,4.1,3.9c0.9,0,1.8-0.3,2.6-0.9c0.2-0.2,0.3-0.4,0.3-0.7v-2.2
				C33.3,31.4,33.1,31.2,32.8,31.2z"/>
			<path class="st1" d="M37.2,29.7c-1.8,0-3.1,1.3-3.1,2.9c0,1.6,1.3,2.9,3.1,2.9c1.8,0,3.1-1.3,3.1-2.9
				C40.2,31,38.9,29.7,37.2,29.7z M37.2,34.1c-0.8,0-1.5-0.7-1.5-1.5c0-0.9,0.6-1.5,1.5-1.5c0.8,0,1.5,0.7,1.5,1.5
				C38.7,33.4,38,34.1,37.2,34.1z"/>
			<path class="st1" d="M45.3,28.7v-0.4c0-0.3-0.2-0.5-0.5-0.5h-5.1c-0.3,0-0.5,0.2-0.5,0.5v0.4c0,0.3,0.2,0.5,0.5,0.5h1.7v5.6
				c0,0.3,0.2,0.5,0.5,0.5h0.6c0.3,0,0.5-0.2,0.5-0.5v-5.6h1.7C45.1,29.2,45.3,29,45.3,28.7z"/>
			<path class="st1" d="M47.2,29.7c-1.8,0-3.1,1.3-3.1,2.9c0,1.6,1.3,2.9,3.1,2.9c1.8,0,3.1-1.3,3.1-2.9C50.3,31,49,29.7,47.2,29.7z
				 M47.2,34.1c-0.8,0-1.5-0.7-1.5-1.5c0-0.9,0.6-1.5,1.5-1.5c0.8,0,1.5,0.7,1.5,1.5C48.7,33.4,48.1,34.1,47.2,34.1z"/>
			<path class="st1" d="M59.9,27.8h-0.3c-0.2,0-0.3,0.1-0.3,0.2l-1.9,5.9l-1.8-5.7c0-0.2-0.2-0.2-0.3-0.2h-0.2
				c-0.2,0-0.3,0.1-0.3,0.2l-1.8,5.7L51.2,28c-0.1-0.2-0.2-0.2-0.3-0.2h-0.3c-0.2,0-0.3,0.1-0.2,0.3l2.2,7c0.1,0.2,0.2,0.2,0.3,0.2
				h0.3c0.2,0,0.3-0.1,0.3-0.2l1.8-5.7l1.8,5.7c0.1,0.2,0.2,0.2,0.3,0.2h0.3c0.2,0,0.3-0.1,0.3-0.2l2.2-7
				C60.2,27.9,60.2,27.8,59.9,27.8z"/>
			<path class="st1" d="M63,29.8c-1.7,0-2.9,1.3-2.9,2.8c0,1.5,1.2,2.8,3,2.8c0.7,0,1.4-0.2,2-0.7c0.2-0.2,0.2-0.3,0.1-0.5l-0.1-0.1
				c-0.1-0.1-0.3-0.1-0.4,0c-0.5,0.4-1,0.5-1.6,0.5c-1.3,0-2.3-0.9-2.2-2.1h4.4c0.2,0,0.3-0.1,0.3-0.3C65.5,30.6,64.3,29.8,63,29.8z
				 M61,32c0.3-1,1.1-1.4,2-1.4c0.7,0,1.6,0.3,1.8,1.4H61z"/>
			<path class="st1" d="M69.6,29.8c-0.8,0-1.6,0.4-2.1,1.2v-3.2c0-0.2-0.1-0.3-0.3-0.3H67c-0.2,0-0.3,0.1-0.3,0.3V35
				c0,0.2,0.1,0.3,0.3,0.3h0.2c0.2,0,0.3-0.1,0.3-0.3v-0.8c0.5,0.8,1.2,1.2,2.1,1.2c1.6,0,2.7-1.3,2.7-2.8
				C72.3,31.1,71.3,29.8,69.6,29.8z M69.5,34.7c-1.2,0-2-0.9-2-2.1c0-1.2,0.8-2.1,2-2.1c1.2,0,1.9,0.9,1.9,2.1
				C71.5,33.8,70.8,34.7,69.5,34.7z"/>
			<path class="st1" d="M73.9,27.6c-0.3,0-0.6,0.3-0.6,0.6c0,0.3,0.2,0.6,0.6,0.6c0.3,0,0.6-0.3,0.6-0.6
				C74.5,27.8,74.2,27.6,73.9,27.6z"/>
			<path class="st1" d="M74,29.9h-0.2c-0.2,0-0.3,0.1-0.3,0.3V35c0,0.2,0.1,0.3,0.3,0.3H74c0.2,0,0.3-0.1,0.3-0.3v-4.8
				C74.3,30.1,74.2,29.9,74,29.9z"/>
			<path class="st1" d="M78.5,29.8c-0.8,0-1.6,0.4-1.9,1.3v-0.8c0-0.2-0.1-0.3-0.3-0.3h-0.2c-0.2,0-0.3,0.1-0.3,0.3V35
				c0,0.2,0.1,0.3,0.3,0.3h0.2c0.2,0,0.3-0.1,0.3-0.3v-2.3c0-1.7,1.2-2.1,1.8-2.1c0.7,0,1.4,0.4,1.4,1.7V35c0,0.2,0.1,0.3,0.3,0.3
				h0.2c0.2,0,0.3-0.1,0.3-0.3v-2.8C80.6,30.5,79.7,29.8,78.5,29.8z"/>
			<path class="st1" d="M87,29.9h-0.2c-0.2,0-0.3,0.1-0.3,0.3V31c-0.5-0.8-1.2-1.2-2.1-1.2c-1.6,0-2.7,1.3-2.7,2.8
				c0,1.5,1.1,2.8,2.7,2.8c0.9,0,1.6-0.4,2.1-1.2V35c0,0.2,0.1,0.3,0.3,0.3H87c0.2,0,0.3-0.1,0.3-0.3v-4.8
				C87.3,30.1,87.2,29.9,87,29.9z M84.4,34.7c-1.2,0-2-0.9-2-2.1c0-1.1,0.7-2.1,1.9-2.1c1.2,0,2,0.9,2,2.1
				C86.5,33.8,85.6,34.7,84.4,34.7z"/>
			<path class="st1" d="M91.2,29.9c-0.1,0-0.2,0-0.3,0c-0.8,0-1.4,0.5-1.6,1.4v-1c0-0.2-0.1-0.3-0.3-0.3h-0.2
				c-0.2,0-0.3,0.1-0.3,0.3V35c0,0.2,0.1,0.3,0.3,0.3h0.2c0.2,0,0.3-0.1,0.3-0.3v-1.8c0-2,0.8-2.6,1.5-2.6c0.1,0,0.2,0,0.3,0
				c0.1,0,0.2,0,0.2-0.2v-0.2C91.4,30,91.4,29.9,91.2,29.9z"/>
		</g>
		<path class="st2" d="M23.4,32.5c-0.6-0.3-1.2-0.3-1.7,0.1c-0.1,0.1-0.2,0.1-0.3,0l-1.6-0.9c0,0,0-0.1,0-0.1l1.6-0.9
			c0.1-0.1,0.2-0.1,0.3,0c0.5,0.4,1.2,0.4,1.8,0.1c0.7-0.4,1-1.4,0.6-2.1c-0.4-0.8-1.4-1.1-2.2-0.6c-0.6,0.3-0.8,0.9-0.8,1.5
			c0,0.1,0,0.2-0.2,0.3l-1.6,0.9c0,0-0.1,0-0.1,0v-1.8c0-0.1,0.1-0.2,0.2-0.3c0.6-0.3,1-0.9,0.9-1.6c-0.1-0.7-0.7-1.3-1.4-1.4
			c-1-0.1-1.8,0.6-1.8,1.6c0,0.6,0.4,1.2,0.9,1.4c0.1,0.1,0.2,0.2,0.2,0.3v1.8c0,0,0,0-0.1,0l-1.6-0.9c-0.1-0.1-0.2-0.2-0.2-0.3
			c0.1-0.7-0.3-1.3-1-1.6c-0.7-0.3-1.5-0.1-1.9,0.5c-0.6,0.8-0.3,1.9,0.5,2.3c0.6,0.3,1.2,0.3,1.7-0.1c0.1-0.1,0.2-0.1,0.3,0
			l1.6,0.9c0,0,0,0.1,0,0.1l-1.6,0.9c-0.1,0.1-0.2,0.1-0.3,0c-0.5-0.4-1.2-0.4-1.7-0.1c-0.7,0.4-1,1.4-0.6,2.1
			c0.4,0.8,1.4,1.1,2.2,0.6c0.6-0.3,0.8-0.9,0.8-1.5c0-0.1,0-0.2,0.2-0.3l1.6-0.9c0,0,0.1,0,0.1,0v1.8c0,0.1-0.1,0.2-0.2,0.3
			c-0.6,0.3-1,0.9-0.9,1.6c0.1,0.7,0.7,1.3,1.4,1.4c1,0.1,1.8-0.6,1.8-1.6c0-0.6-0.4-1.2-0.9-1.4c-0.1-0.1-0.2-0.2-0.2-0.3v-1.8
			c0,0,0,0,0.1,0l1.6,0.9c0.1,0.1,0.2,0.2,0.2,0.3c-0.1,0.6,0.2,1.2,0.8,1.5c0.8,0.4,1.8,0.2,2.2-0.6C24.3,33.9,24.1,32.9,23.4,32.5
			z"/>
	</g>
	<g>
		<path class="st3" d="M113.6,31.3C113.6,31.3,113.6,31.3,113.6,31.3C113.6,31.3,113.6,31.3,113.6,31.3
			C113.6,31.3,113.6,31.3,113.6,31.3C113.6,31.3,113.6,31.3,113.6,31.3C113.7,31.3,113.7,31.3,113.6,31.3
			C113.7,31.3,113.7,31.3,113.6,31.3C113.7,31.3,113.7,31.3,113.6,31.3C113.7,31.3,113.7,31.3,113.6,31.3L113.6,31.3
			c0-0.1,0-0.1,0-0.1c0,0,0,0,0,0c0,0,0,0,0,0c0,0,0,0,0,0h0c0,0,0,0,0,0c0,0,0,0,0,0c0,0,0,0,0,0c0,0,0,0,0,0l0,0.1c0,0,0,0,0,0
			c0,0,0,0,0,0c0,0,0,0,0,0c0,0,0,0,0,0c0,0,0,0,0,0c0,0,0,0,0,0c0,0,0,0,0,0c0,0,0,0,0,0c0,0,0,0,0,0c0,0,0,0,0,0l0-0.1
			c0,0,0,0,0,0c0,0,0,0,0,0c0,0,0,0,0,0c0,0,0,0,0,0c0,0,0,0,0,0c0,0,0,0,0,0c0,0,0,0,0,0c0,0,0,0,0,0c0,0,0,0,0,0c0,0,0,0,0,0
			c0,0,0,0,0,0c0,0,0,0,0,0v0l0,0c0,0,0,0,0,0c0,0,0,0,0,0c0,0,0,0,0,0c0,0,0,0-0.1,0h-0.1h0c0,0,0,0,0,0c0,0,0,0,0,0c0,0,0,0,0,0
			s0,0,0,0L113.6,31.3C113.6,31.3,113.6,31.3,113.6,31.3C113.6,31.3,113.6,31.3,113.6,31.3L113.6,31.3L113.6,31.3z M113.7,31.1
			C113.7,31.1,113.7,31.1,113.7,31.1C113.7,31.1,113.7,31.1,113.7,31.1L113.7,31.1C113.7,31.1,113.7,31.1,113.7,31.1
			C113.7,31.1,113.7,31.1,113.7,31.1C113.7,31.1,113.7,31.1,113.7,31.1C113.7,31.1,113.7,31.1,113.7,31.1
			C113.7,31.1,113.7,31.1,113.7,31.1C113.7,31.1,113.7,31.1,113.7,31.1C113.7,31.1,113.8,31.1,113.7,31.1c0.1,0,0.1,0,0.1,0
			c0,0,0,0,0,0c0,0,0,0,0,0c0,0,0,0,0,0c0,0,0,0,0,0c0,0,0,0,0,0C113.8,31.2,113.8,31.2,113.7,31.1
			C113.8,31.2,113.8,31.2,113.7,31.1C113.7,31.2,113.7,31.2,113.7,31.1C113.7,31.2,113.7,31.2,113.7,31.1
			C113.7,31.2,113.7,31.2,113.7,31.1C113.7,31.2,113.7,31.1,113.7,31.1C113.7,31.1,113.7,31.1,113.7,31.1z"/>
		<path class="st3" d="M113.7,31.5c0.2,0,0.3-0.1,0.3-0.3c0-0.2-0.1-0.3-0.3-0.3c-0.2,0-0.3,0.1-0.3,0.3
			C113.4,31.4,113.5,31.5,113.7,31.5z M113.7,30.9c0.1,0,0.3,0.1,0.3,0.3c0,0.1-0.1,0.3-0.3,0.3c-0.1,0-0.3-0.1-0.3-0.3
			C113.5,31,113.6,30.9,113.7,30.9z"/>
		<path class="st3" d="M96,34.9C96,34.8,96,34.8,96,34.9c0-0.1,0-0.1,0-0.2c0,0,0,0-0.1,0c0,0-0.1,0-0.1,0c0,0-0.1,0-0.1,0
			c0,0-0.1,0-0.1,0H95c-0.1,0-0.1,0-0.2,0c-0.1,0-0.1,0-0.1-0.1c0,0,0,0,0-0.1c0,0,0,0,0-0.1v0c0,0,0,0,0-0.1c0,0,0-0.1,0-0.1V34
			v-1.5v-0.4c0,0,0-0.1,0-0.1c0,0,0-0.1,0-0.1c0,0,0,0-0.1,0c0,0-0.1,0-0.1,0H94c0,0,0,0,0,0c0,0,0,0,0,0c0,0-0.1,0-0.1,0
			c0,0,0,0,0,0.1c0,0,0,0.1,0,0.1v0.3v1.1v1.3v0.3c0,0,0,0.1,0,0.1c0,0,0,0.1,0,0.1c0,0,0,0,0.1,0c0,0,0.1,0,0.1,0h0.4h1h0.3
			c0,0,0.1,0,0.1,0c0,0,0.1,0,0.1,0c0,0,0,0,0-0.1c0,0,0,0,0-0.1c0,0,0,0,0-0.1L96,34.9L96,34.9z"/>
		<path class="st3" d="M98.6,33.7C98.6,33.6,98.6,33.6,98.6,33.7c0-0.1-0.1-0.2-0.1-0.2c0,0,0-0.1-0.1-0.1c0,0,0-0.1-0.1-0.1
			c0,0,0-0.1-0.1-0.1c0,0-0.1-0.1-0.1-0.1c0,0-0.1-0.1-0.1-0.1c-0.1,0-0.1-0.1-0.2-0.1c-0.1-0.1-0.3-0.1-0.6-0.1c0,0,0,0,0,0
			c0,0,0,0,0,0c0,0,0,0,0,0c0,0-0.1,0-0.1,0c0,0,0,0-0.1,0c0,0,0,0,0,0c-0.2,0-0.3,0.1-0.4,0.1c0,0-0.1,0-0.1,0
			c-0.1,0.1-0.2,0.2-0.3,0.2c-0.1,0.1-0.2,0.2-0.2,0.3c0,0,0,0.1,0,0.1c0,0,0,0.1,0,0.1c0,0,0,0,0,0c0,0,0,0,0,0c0,0,0,0,0,0
			c0,0,0,0,0,0c0,0.1,0,0.1,0,0.2c0,0,0,0,0,0c0,0,0,0,0,0c0,0.2,0,0.3,0.1,0.4c0,0,0,0,0,0.1c0,0,0,0.1,0,0.1
			c0.1,0.1,0.1,0.2,0.2,0.3c0.1,0.1,0.2,0.2,0.3,0.2c0,0,0.1,0,0.1,0c0,0,0.1,0,0.1,0c0,0,0.1,0,0.1,0c0.1,0,0.2,0.1,0.4,0.1
			c0.2,0,0.3,0,0.4-0.1h0c0,0,0.1,0,0.1,0c0.2-0.1,0.3-0.1,0.4-0.2c0.1-0.1,0.2-0.2,0.3-0.4c0,0,0-0.1,0-0.1c0,0,0-0.1,0-0.1
			c0,0,0,0,0,0c0-0.1,0-0.2,0-0.4c0,0,0,0,0,0c0,0,0,0,0,0c0,0,0,0,0,0C98.7,33.9,98.7,33.8,98.6,33.7
			C98.6,33.7,98.6,33.7,98.6,33.7z M97.9,34.4C97.9,34.4,97.9,34.4,97.9,34.4c0,0,0,0.1,0,0.1c0,0.1-0.1,0.2-0.1,0.2
			c-0.1,0.1-0.1,0.1-0.2,0.1c0,0,0,0-0.1,0c0,0,0,0-0.1,0h0c0,0-0.1,0-0.1,0c0,0,0,0,0,0c0,0,0,0,0,0c0,0,0,0,0,0c0,0-0.1,0-0.1,0
			c0,0-0.1,0-0.1,0c-0.1,0-0.1-0.1-0.2-0.2c0-0.1-0.1-0.1-0.1-0.2c0-0.1-0.1-0.2-0.1-0.4c0-0.1,0-0.3,0-0.3c0,0,0,0,0,0
			c0-0.1,0.1-0.2,0.1-0.2c0.1-0.1,0.1-0.1,0.2-0.2c0,0,0,0,0.1,0c0,0,0,0,0.1,0c0,0,0,0,0,0c0,0,0,0,0,0c0,0,0.1,0,0.1,0
			c0,0,0.1,0,0.1,0c0,0,0,0,0.1,0c0,0,0,0,0.1,0c0.1,0,0.1,0.1,0.2,0.1c0,0.1,0.1,0.1,0.1,0.2c0,0,0,0.1,0,0.1c0,0,0,0,0,0
			c0,0.1,0,0.2,0,0.3C98,34.2,98,34.3,97.9,34.4z"/>
		<path class="st3" d="M105.3,31.8C105.2,31.8,105.2,31.8,105.3,31.8h-0.4h-0.3c0,0-0.1,0-0.1,0c0,0-0.1,0-0.1,0c0,0,0,0-0.1,0.1
			c0,0,0,0.1,0,0.1c0,0.1,0,0.1,0,0.2c0,0.1,0,0.1,0,0.2c-0.1,0.2-0.1,0.4-0.2,0.6c-0.1,0.2-0.1,0.4-0.2,0.6c0,0.1,0,0.1-0.1,0.2
			c0,0.1,0,0.1-0.1,0.2c0,0,0,0.1,0,0.1c0,0,0,0,0,0c0,0,0,0-0.1,0c0,0-0.1-0.1-0.1-0.2c0-0.1,0-0.1-0.1-0.2c0-0.1,0-0.1-0.1-0.2
			c-0.1-0.2-0.2-0.4-0.2-0.6c-0.1-0.2-0.1-0.4-0.2-0.6c0-0.1,0-0.1-0.1-0.2c0-0.1,0-0.1-0.1-0.2c0,0,0-0.1,0-0.1c0,0,0-0.1,0-0.1
			c0,0-0.1,0-0.1,0c-0.1,0-0.1,0-0.2,0h-0.6c0,0,0,0,0,0c0,0,0,0,0,0c0,0-0.1,0-0.1,0c0,0,0,0,0,0.1c0,0,0,0,0,0.1s0,0.1,0,0.1
			c0,0,0,0.1,0,0.1v0.7v1.8v0.4c0,0,0,0.1,0,0.1c0,0,0,0.1,0,0.1c0,0,0,0,0.1,0c0,0,0.1,0,0.1,0h0.3c0,0,0.1,0,0.1,0
			c0,0,0.1,0,0.1,0c0,0,0.1,0,0.1,0c0,0,0,0,0-0.1c0,0,0-0.1,0-0.1v-0.2v-1.3c0,0,0-0.1,0-0.1c0,0,0-0.1,0-0.1c0,0,0-0.1,0-0.1
			c0,0,0,0,0-0.1c0,0,0,0,0-0.1c0,0,0-0.1,0-0.1c0,0,0,0,0,0c0,0,0,0,0,0c0,0,0,0.1,0.1,0.1c0,0,0,0,0,0l0.6,1.8l0,0c0,0,0,0,0,0.1
			c0,0,0,0.1,0,0.1c0,0,0,0,0.1,0.1c0,0,0,0,0.1,0c0,0,0.1,0,0.1,0c0,0,0.1,0,0.1,0c0,0,0.1,0,0.1,0h0.1c0,0,0,0,0.1,0
			c0,0,0,0,0.1,0c0,0,0,0,0,0c0,0,0,0,0,0l0-0.1l0.7-2c0,0,0,0,0,0c0,0,0,0,0-0.1c0,0,0,0,0,0c0,0,0,0,0,0c0,0,0,0,0,0c0,0,0,0,0,0
			c0,0,0,0.1,0,0.1c0,0,0,0.1,0,0.1c0,0,0,0.1,0,0.1c0,0,0,0.1,0,0.1c0,0,0,0.1,0,0.1v1.3v0.3c0,0,0,0.1,0,0.1c0,0,0,0,0,0.1
			c0,0,0,0,0,0c0,0,0,0,0.1,0h0.1h0.2c0,0,0.1,0,0.1,0c0,0,0.1,0,0.1,0c0,0,0,0,0-0.1c0,0,0-0.1,0-0.1v-0.4v-1.8v-0.7
			c0-0.1,0-0.1,0-0.2C105.4,31.9,105.4,31.8,105.3,31.8C105.3,31.8,105.3,31.8,105.3,31.8z"/>
		<path class="st3" d="M101.3,32.8C101.3,32.8,101.3,32.8,101.3,32.8c-0.1,0-0.1,0-0.2,0h-0.2c0,0-0.1,0-0.1,0c0,0-0.1,0-0.1,0
			c0,0,0,0,0,0c0,0,0,0,0,0c0,0.1,0,0.1-0.1,0.1c0,0,0,0-0.1,0c0,0,0,0,0,0c0,0,0,0-0.1,0c0,0,0,0,0,0c0,0,0,0,0,0
			c0,0-0.1-0.1-0.1-0.1c0,0-0.1,0-0.2,0c0,0-0.1,0-0.1,0c0,0,0,0,0,0c0,0-0.1,0-0.1,0c0,0,0,0,0,0c-0.1,0-0.2,0-0.2,0.1
			c0,0-0.1,0-0.1,0c0,0-0.1,0-0.1,0.1c0,0,0,0,0,0c0,0,0,0,0,0l0,0c0,0,0,0-0.1,0c0,0,0,0,0,0c0,0,0,0.1-0.1,0.1c0,0,0,0.1-0.1,0.1
			c0,0.1-0.1,0.1-0.1,0.2c0,0,0,0,0,0.1c0,0.1-0.1,0.2-0.1,0.3c0,0,0,0,0,0v0c0,0,0,0.1,0,0.1c0,0,0,0,0,0c0,0,0,0,0,0c0,0,0,0,0,0
			c0,0.2,0,0.4,0.1,0.5c0,0,0,0,0,0c0.1,0.1,0.1,0.3,0.2,0.4c0.1,0.1,0.2,0.2,0.3,0.2c0,0,0.1,0,0.1,0c0,0,0.1,0,0.1,0c0,0,0,0,0,0
			c0,0,0,0,0,0h0c0,0,0,0,0.1,0s0.1,0,0.1,0c0,0,0,0,0.1,0c0,0,0,0,0.1,0c0,0,0.1,0,0.1,0c0,0,0.1,0,0.1,0c0,0,0.1,0,0.1-0.1
			c0,0,0.1,0,0.1-0.1c0,0,0,0,0,0c0,0,0,0,0,0c0,0,0,0,0,0c0,0,0,0,0.1,0c0,0,0,0.1,0,0.1c0,0,0,0,0,0c0,0,0,0,0,0c0,0,0,0.1,0,0.1
			c0,0,0,0.1,0,0.1c0,0,0,0,0,0.1c0,0,0,0,0,0.1c0,0.1-0.1,0.1-0.1,0.2c0,0-0.1,0.1-0.1,0.1c0,0,0,0-0.1,0c0,0,0,0,0,0c0,0,0,0,0,0
			c0,0-0.1,0-0.1,0c-0.1,0-0.1,0-0.2,0c0,0-0.1,0-0.1,0c0,0,0,0,0,0c0,0,0,0-0.1,0c0,0,0,0,0,0c0,0,0,0,0,0c0,0,0,0-0.1-0.1
			c0,0,0,0,0,0c0,0,0-0.1-0.1-0.1s0,0-0.1-0.1c0,0,0,0,0,0c0,0,0,0,0,0h-0.2c0,0-0.1,0-0.1,0c0,0-0.1,0-0.1,0c0,0-0.1,0-0.1,0
			c0,0,0,0.1,0,0.1c0,0,0,0,0,0c0,0,0,0,0,0c0,0.1,0.1,0.2,0.2,0.3c0.1,0.1,0.2,0.1,0.3,0.2c0,0,0.1,0,0.1,0c0,0,0.1,0,0.1,0
			c0,0,0,0,0,0c0.1,0,0.2,0,0.3,0c0,0,0,0,0,0c0,0,0,0,0,0c0,0,0,0,0,0c0.1,0,0.2,0,0.3,0c0,0,0.1,0,0.1,0c0,0,0.1,0,0.1,0
			c0,0,0.1,0,0.1,0c0.1-0.1,0.2-0.1,0.3-0.2c0.1-0.1,0.2-0.2,0.2-0.3c0,0,0-0.1,0-0.1c0,0,0-0.1,0-0.1c0,0,0-0.1,0-0.1
			c0,0,0,0,0-0.1c0,0,0-0.1,0-0.1c0,0,0,0,0-0.1V33C101.4,33,101.4,32.9,101.3,32.8C101.4,32.8,101.4,32.8,101.3,32.8z M100.7,34.1
			c0,0.1,0,0.1,0,0.1c0,0,0,0.1,0,0.1c0,0.1-0.1,0.2-0.1,0.2c-0.1,0.1-0.1,0.1-0.2,0.1c0,0-0.1,0-0.1,0c0,0,0,0,0,0c0,0,0,0-0.1,0
			c0,0,0,0,0,0h0c0,0,0,0,0,0c0,0,0,0,0,0c0,0,0,0,0,0c0,0,0,0-0.1,0c0,0,0,0,0,0c0,0,0,0,0,0c0,0-0.1,0-0.1,0c0,0,0,0,0,0
			c-0.1,0-0.1-0.1-0.2-0.2c0-0.1-0.1-0.1-0.1-0.2c0,0,0,0,0,0c0,0,0-0.1,0-0.1c0,0,0,0,0,0v0c0,0,0-0.1,0-0.1c0,0,0-0.1,0-0.1
			c0,0,0-0.1,0-0.1c0,0,0-0.1,0-0.1c0,0,0,0,0,0c0,0,0,0,0,0v0c0,0,0-0.1,0-0.1c0,0,0-0.1,0.1-0.1c0-0.1,0.1-0.1,0.2-0.2
			c0,0,0,0,0,0c0,0,0.1,0,0.2,0c0.1,0,0.1,0,0.2,0c0.1,0,0.1,0,0.2,0.1c0.1,0.1,0.2,0.1,0.2,0.3c0,0,0,0,0,0.1c0,0,0,0,0,0.1
			c0,0,0,0,0,0c0,0,0,0,0,0.1c0,0,0,0.1,0,0.1C100.7,34,100.7,34,100.7,34.1z"/>
		<path class="st3" d="M108.1,33.8c0-0.1,0-0.1,0-0.2c0-0.1,0-0.2-0.1-0.2c0,0,0-0.1,0-0.1c0,0,0,0,0,0c0-0.1-0.1-0.1-0.1-0.2
			c0,0,0,0,0,0c0,0,0,0,0,0c0,0-0.1-0.1-0.1-0.1c0,0,0,0,0,0c0,0-0.1,0-0.1-0.1c-0.1-0.1-0.2-0.1-0.3-0.2c0,0,0,0,0,0
			c-0.1,0-0.2-0.1-0.4-0.1c0,0,0,0,0,0c0,0,0,0,0,0h0c0,0-0.1,0-0.1,0c0,0,0,0-0.1,0c0,0,0,0,0,0c-0.1,0-0.1,0-0.1,0
			c0,0-0.1,0-0.1,0c-0.3,0.1-0.6,0.4-0.7,0.7c0,0,0,0.1,0,0.1c0,0.1-0.1,0.2-0.1,0.3l0,0v0c0,0,0,0,0,0.1c0,0,0,0,0,0c0,0,0,0,0,0
			c0,0.2,0,0.4,0.1,0.5c0,0,0,0.1,0,0.1c0.1,0.1,0.1,0.2,0.2,0.3c0.1,0.1,0.2,0.2,0.3,0.2c0,0,0.1,0,0.1,0c0,0,0.1,0.1,0.2,0.1
			c0,0,0.1,0,0.1,0c0,0,0,0,0,0c0.1,0,0.1,0,0.2,0c0,0,0.1,0,0.1,0c0,0,0,0,0,0c0,0,0,0,0,0c0.3,0,0.4-0.1,0.5-0.1
			c0.1,0,0.1-0.1,0.2-0.1c0.1-0.1,0.2-0.2,0.2-0.3c0,0,0-0.1,0.1-0.1c0,0,0-0.1,0.1-0.1c0,0,0,0,0-0.1c0,0,0,0,0,0
			c0,0,0-0.1-0.1-0.1h-0.1c0,0,0,0,0,0c0,0,0,0,0,0h-0.2c0,0,0,0,0,0c0,0,0,0,0,0h0c0,0-0.1,0-0.1,0.1c0,0,0,0,0,0c0,0,0,0,0,0.1
			c0,0,0,0-0.1,0.1c0,0-0.1,0-0.1,0.1c0,0,0,0,0,0c0,0-0.1,0-0.1,0c0,0,0,0,0,0h0c0,0,0,0-0.1,0c0,0-0.1,0-0.1,0h0
			c-0.1,0-0.2,0-0.2-0.1c0,0,0,0,0,0c-0.1,0-0.1-0.1-0.2-0.1c0-0.1-0.1-0.1-0.1-0.2c0,0,0,0,0,0c0,0,0,0,0-0.1c0,0,0,0,0,0
			c0,0,0,0,0,0c0,0,0,0,0,0c0,0,0,0,0,0c0,0,0,0,0,0c0,0,0,0,0.1,0c0,0,0,0,0.1,0h1.2c0,0,0.1,0,0.1,0c0,0,0.1,0,0.1,0
			c0,0,0.1,0,0.1,0c0,0,0.1,0,0.1,0c0,0,0,0,0-0.1c0,0,0-0.1,0-0.1C108.1,33.9,108.1,33.9,108.1,33.8z M107.4,33.7
			C107.4,33.8,107.3,33.8,107.4,33.7c-0.2,0-0.2,0-0.2,0h-0.5c0,0-0.1,0-0.1,0c0,0-0.1,0-0.1,0c0,0,0,0,0,0c0,0,0,0,0-0.1
			c0,0,0,0,0-0.1c0,0,0,0,0-0.1c0.1-0.1,0.2-0.2,0.3-0.3c0,0,0,0,0.1,0c0,0,0.1,0,0.1,0c0,0,0.2,0,0.4,0.1c0.1,0.1,0.1,0.1,0.2,0.2
			c0,0,0,0.1,0,0.1C107.4,33.7,107.4,33.7,107.4,33.7z"/>
		<path class="st3" d="M111.2,30.7c-1.6,0-2.9,1.3-2.9,2.9c0,1.6,1.3,2.9,2.9,2.9c1.6,0,2.9-1.3,2.9-2.9
			C114.1,32,112.8,30.7,111.2,30.7z M110.2,35.3C110.2,35.3,110.1,35.3,110.2,35.3c-0.1,0.1-0.1,0.1-0.2,0.1c0,0-0.1,0-0.1,0h-0.3
			c0,0-0.1,0-0.1,0c0,0-0.1,0-0.1,0c0,0,0,0,0-0.1c0,0,0-0.1,0-0.1v-0.4v-1.8v-0.7c0,0,0-0.1,0-0.2c0-0.1,0-0.1,0-0.1c0,0,0,0,0.1,0
			c0,0,0,0,0,0c0,0,0,0,0,0h0.4c0,0,0.1,0,0.1,0c0,0,0.1,0,0.1,0c0,0,0,0.1,0,0.1c0,0,0,0.1,0,0.1v0.4v1.7V35c0,0,0,0.1,0,0.1
			C110.2,35.2,110.2,35.3,110.2,35.3z M113.1,33.8v0.4V35c0,0.1,0,0.1,0,0.2c0,0.1,0,0.1-0.1,0.1c0,0,0,0-0.1,0c0,0-0.1,0-0.1,0
			h-0.3c0,0-0.1,0-0.1,0c0,0-0.1,0-0.1,0c0,0,0,0,0-0.1c0,0,0-0.1,0-0.1v-0.3V34c0-0.1,0-0.2,0-0.3c0-0.1,0-0.2-0.1-0.3
			c0-0.1-0.1-0.1-0.2-0.1c0,0-0.1,0-0.2,0c-0.1,0-0.2,0-0.2,0.1c0,0-0.1,0-0.1,0c-0.1,0.1-0.2,0.2-0.2,0.3c0,0.1,0,0.3,0,0.5v0.6
			v0.3c0,0,0,0.1,0,0.1c0,0,0,0.1,0,0.1c0,0,0,0.1-0.1,0.1c0,0-0.1,0-0.1,0h-0.2c0,0-0.1,0-0.1,0c0,0-0.1,0-0.1,0c0,0,0-0.1,0-0.1
			c0-0.1,0-0.1,0-0.2v-0.7v-1.1V33c0,0,0-0.1,0-0.1c0,0,0-0.1,0-0.1c0,0,0,0,0,0c0,0,0,0,0,0h0c0,0,0,0,0.1,0c0,0,0,0,0.1,0h0.2
			c0,0,0.1,0,0.1,0c0,0,0,0,0.1,0c0,0,0,0,0,0c0,0,0,0,0,0.1c0,0.1,0,0.1,0.1,0.1c0,0,0,0,0.1,0c0,0,0,0,0,0c0,0,0.1-0.1,0.1-0.1
			c0,0,0,0,0,0c0,0,0.1-0.1,0.2-0.1c0,0,0,0,0,0c0,0,0.1,0,0.1,0c0,0,0,0,0,0c0.1,0,0.2,0,0.3,0c0.1,0,0.3,0,0.4,0.1
			c0.1,0.1,0.2,0.2,0.3,0.3c0,0,0,0.1,0.1,0.1c0,0,0,0.1,0,0.1c0,0,0,0.1,0,0.1c0,0,0,0,0,0.1c0,0,0,0,0,0c0,0,0,0.1,0,0.1
			C113.1,33.7,113.1,33.8,113.1,33.8z"/>
		<path class="st3" d="M93.9,31.3C93.9,31.3,94,31.3,93.9,31.3c0.1,0,0.1,0,0.1,0h0.2c0,0,0.1,0,0.1,0c0,0,0,0,0.1,0c0,0,0,0,0-0.1
			c0,0,0-0.1,0-0.1c0,0,0,0,0.1,0c0,0,0,0,0,0c0,0,0,0,0,0c0,0,0,0,0.1,0c0,0,0,0,0.1,0c0,0,0.1,0.1,0.1,0.1c0.1,0,0.1,0,0.2,0
			c0,0,0,0,0.1,0c0,0,0,0,0.1,0h0c0,0,0,0,0.1,0c0,0,0.1,0,0.1,0h0c0,0,0,0,0.1,0c0,0,0,0,0.1,0c0,0,0.1,0,0.1,0c0,0,0.1,0,0.1,0
			c0.1-0.1,0.3-0.1,0.3-0.3c0.1-0.1,0.2-0.2,0.2-0.4c0,0,0-0.1,0-0.1c0,0,0-0.1,0-0.1c0,0,0-0.1,0-0.1c0,0,0-0.1,0-0.1
			c0,0,0,0,0-0.1c0,0,0,0,0,0c0,0,0,0,0,0c0,0,0-0.1,0-0.1c0,0,0-0.1,0-0.1v0c0,0,0,0,0-0.1c0,0,0,0,0-0.1c0,0,0-0.1,0-0.1
			c0,0,0,0,0-0.1c0,0,0-0.1,0-0.1c0,0,0-0.1,0-0.1c-0.1-0.1-0.1-0.3-0.2-0.4c-0.1-0.1-0.2-0.2-0.4-0.2c0,0-0.1,0-0.1,0
			c0,0-0.1,0-0.1,0c0,0,0,0,0,0c0,0,0,0,0,0h0c0,0-0.1,0-0.1,0c0,0-0.1,0-0.1,0c0,0-0.1,0-0.1,0c0,0-0.1,0-0.1,0
			c-0.1,0-0.1,0-0.2,0.1c0,0-0.1,0-0.1,0.1c0,0,0,0-0.1,0c0,0,0,0-0.1,0c0,0,0,0,0,0c0,0,0,0,0,0c0,0,0,0,0,0c0,0,0,0,0,0
			c0,0,0-0.1,0-0.1c0,0,0-0.1,0-0.1v-0.5c0,0,0-0.1,0-0.1c0-0.1,0-0.1,0-0.1c0,0,0-0.1-0.1-0.1c0,0-0.1,0-0.2,0H94c0,0,0,0,0,0
			c0,0,0,0,0,0c0,0-0.1,0-0.1,0c0,0,0,0.1,0,0.1c0,0,0,0.1,0,0.1v3C93.8,31.1,93.8,31.2,93.9,31.3C93.9,31.3,93.9,31.3,93.9,31.3z
			 M94.5,30C94.5,30,94.5,30,94.5,30C94.5,30,94.5,29.9,94.5,30c0-0.1,0-0.1,0-0.1c0,0,0-0.1,0-0.1c0,0,0-0.1,0-0.1
			c0-0.1,0.1-0.2,0.1-0.3c0-0.1,0.1-0.1,0.2-0.2c0,0,0,0,0.1,0c0,0,0,0,0.1,0c0,0,0,0,0,0c0,0,0,0,0,0c0.2,0,0.3,0,0.4,0.1
			c0.1,0.1,0.1,0.2,0.2,0.3c0,0,0,0.1,0,0.1c0,0,0,0.1,0,0.1c0,0,0,0.1,0,0.1c0,0.1,0,0.1,0,0.2c0,0.1,0,0.1,0,0.1c0,0,0,0.1,0,0.1
			c0,0.1-0.1,0.2-0.1,0.3c-0.1,0.1-0.1,0.1-0.2,0.2c0,0-0.1,0-0.1,0c0,0-0.1,0-0.1,0c0,0,0,0-0.1,0c0,0,0,0,0,0c0,0,0,0,0,0
			c0,0,0,0,0,0c-0.1,0-0.1,0-0.2-0.1c-0.1,0-0.1-0.1-0.2-0.2c0-0.1-0.1-0.1-0.1-0.2c0,0,0-0.1,0-0.1c0,0,0-0.1,0-0.1
			c0,0,0-0.1,0-0.1C94.5,30.1,94.5,30,94.5,30z"/>
		<path class="st3" d="M98.9,28.8C98.8,28.8,98.8,28.8,98.9,28.8c-0.1,0-0.1,0-0.2,0h-0.3c0,0-0.1,0-0.1,0c0,0-0.1,0-0.1,0
			c0,0,0,0,0,0.1c0,0,0,0.1,0,0.1c0,0,0,0.1,0,0.1s0,0.1,0,0.1c0,0.1-0.1,0.3-0.1,0.4c0,0.1-0.1,0.3-0.1,0.4c0,0,0,0.1,0,0.1
			c0,0,0,0.1,0,0.1c0,0,0,0,0,0c0,0,0,0,0,0c0,0,0,0,0,0c0,0,0,0,0,0c0,0-0.1,0-0.1,0c0,0,0-0.1,0-0.1c0,0,0-0.1,0-0.1
			c0,0,0-0.1,0-0.1l-0.1-0.3c0-0.1-0.1-0.1-0.1-0.2c0-0.1,0-0.1-0.1-0.2c0,0,0-0.1,0-0.1c0,0,0-0.1,0-0.1c0,0,0-0.1,0-0.2
			c0-0.1,0-0.1-0.1-0.1c0,0-0.1,0-0.1,0c0,0-0.1,0-0.1,0h-0.4c0,0,0,0,0,0c0,0,0,0,0,0c0,0-0.1,0-0.1,0c0,0,0,0.1,0,0.1
			c0,0,0,0.1,0,0.1c0,0.1,0,0.1,0.1,0.2c0,0.1,0,0.1,0.1,0.2c0,0,0,0,0,0c0,0,0,0,0,0c0.1,0.1,0.1,0.3,0.1,0.4
			c0,0.1,0.1,0.3,0.1,0.4c0,0,0,0.1,0,0.1c0,0,0,0.1,0,0.1c0,0.1,0,0.1,0.1,0.2c0,0.1,0,0.1,0.1,0.2c0,0.1,0.1,0.1,0.1,0.2
			c0,0.1,0,0.1,0.1,0.2c0,0,0,0,0,0c0,0,0,0,0,0c0,0,0,0,0,0.1c0,0,0,0,0,0.1c0,0.1-0.1,0.2-0.2,0.2c0,0,0,0,0,0c0,0,0,0,0,0h-0.1
			h-0.1c0,0,0,0-0.1,0c0,0,0,0-0.1,0c0,0-0.1,0.1-0.1,0.1s0,0.1,0,0.2V32c0,0,0,0,0,0.1c0,0,0,0,0,0c0,0,0,0,0.1,0c0,0,0.1,0,0.1,0
			c0,0,0.1,0,0.1,0c0,0,0.1,0,0.1,0h0.1c0,0,0.1,0,0.1,0c0,0,0.1,0,0.1,0c0.1,0,0.1,0,0.2-0.1c0.1,0,0.1,0,0.1-0.1
			c0.1,0,0.1-0.1,0.1-0.1c0,0,0.1-0.1,0.1-0.1c0-0.1,0.1-0.1,0.1-0.2c0-0.1,0-0.1,0.1-0.2c0,0,0,0,0-0.1c0,0,0,0,0-0.1
			c0.1-0.2,0.1-0.3,0.2-0.5c0.1-0.2,0.1-0.3,0.2-0.5c0,0,0-0.1,0-0.1c0,0,0-0.1,0-0.1c0,0,0-0.1,0.1-0.1c0,0,0-0.1,0.1-0.1
			c0-0.1,0.1-0.2,0.1-0.4c0-0.1,0.1-0.2,0.1-0.3c0,0,0-0.1,0-0.1C98.8,29,98.9,28.9,98.9,28.8C98.9,28.9,98.9,28.8,98.9,28.8z"/>
	</g>
</g>
<g>
	<path class="st4" d="M71.6,91.3h-3.9v0.4c1.2,0,1.4,0.3,1.4,1.8v2.8c0,1.5-0.2,1.8-1.4,1.8c-0.9-0.1-1.6-0.6-2.4-1.6l-1-1.1
		c1.4-0.2,2.1-1.1,2.1-2c0-1.2-1-2.1-2.9-2.1h-3.8v0.4c1.2,0,1.4,0.3,1.4,1.8v2.8c0,1.5-0.2,1.8-1.4,1.8v0.4h4.3v-0.4
		c-1.2,0-1.4-0.3-1.4-1.8v-0.8h0.4l2.4,3h6.3c3.1,0,4.5-1.7,4.5-3.6C76,92.9,74.7,91.3,71.6,91.3z M62.4,94.9V92h0.9
		c1,0,1.4,0.7,1.4,1.5c0,0.8-0.4,1.4-1.4,1.4H62.4z M71.6,97.9h-0.2c-0.8,0-0.9-0.2-0.9-1.2V92c0,0,1,0,1,0c2.3,0,2.7,1.7,2.7,2.9
		C74.3,96.2,73.9,97.9,71.6,97.9z"/>
	<path class="st4" d="M47.4,95.7l1.5-4.4c0.4-1.3,0.2-1.7-1.2-1.7v-0.4h4.1v0.4c-1.4,0-1.7,0.3-2.2,1.9l-2.5,7.5h-0.3l-2.2-6.8
		l-2.3,6.8h-0.3l-2.4-7.5c-0.5-1.6-0.9-1.9-2.1-1.9v-0.4h4.8v0.4c-1.3,0-1.6,0.3-1.2,1.7l1.5,4.4l2.2-6.5h0.4L47.4,95.7z"/>
	<path class="st4" d="M54.8,98.8c-2.4,0-4.4-1.8-4.4-3.9c0-2.1,2-3.9,4.4-3.9c2.4,0,4.4,1.8,4.4,3.9C59.2,97.1,57.2,98.8,54.8,98.8z
		 M54.8,91.7c-2,0-2.7,1.8-2.7,3.2c0,1.4,0.7,3.2,2.7,3.2c2,0,2.7-1.8,2.7-3.2C57.5,93.5,56.8,91.7,54.8,91.7z"/>
	<path class="st5" d="M81.4,98.1v0.4h-5v-0.4c1.5,0,1.7-0.4,1.7-2.5v-3.5c0-2.2-0.3-2.5-1.7-2.5v-0.4h4.5c2.2,0,3.5,1.2,3.5,2.7
		c0,1.5-1.2,2.7-3.5,2.7h-1.2v1.1C79.7,97.8,80,98.1,81.4,98.1z M80.9,89.9h-1.2v3.8h1.2c1.2,0,1.8-0.8,1.8-1.9
		C82.7,90.8,82.2,89.9,80.9,89.9z"/>
	<path class="st5" d="M99.4,96.5l-0.1,0.4c-0.2,0.7-0.4,1-2,1H97c-1.1,0-1.3-0.3-1.3-1.8v-1c1.7,0,1.8,0.2,1.8,1.3h0.4v-3.2h-0.4
		c0,1.1-0.1,1.3-1.8,1.3V92h1.2c1.5,0,1.8,0.3,2,1l0.1,0.4h0.3l-0.2-2h-6.4v0.4c1.2,0,1.4,0.3,1.4,1.8v2.8c0,1.4-0.2,1.8-1.1,1.8
		c-0.9-0.1-1.5-0.6-2.4-1.6l-1-1.1c1.4-0.2,2.1-1.1,2.1-2c0-1.2-1-2.1-2.9-2.1h-3.8v0.4c1.2,0,1.4,0.3,1.4,1.8v2.8
		c0,1.5-0.2,1.8-1.4,1.8v0.4h4.3v-0.4c-1.2,0-1.4-0.3-1.4-1.8v-0.8h0.4l2.4,3h9l0.1-2H99.4z M87.8,94.9V92h0.9c1,0,1.4,0.7,1.4,1.5
		c0,0.8-0.4,1.4-1.4,1.4H87.8z"/>
	<path class="st5" d="M103.8,98.8c-0.9,0-1.6-0.5-2-0.7c-0.1,0.1-0.3,0.4-0.3,0.7h-0.4v-3h0.4c0.2,1.4,1.2,2.3,2.5,2.3
		c0.7,0,1.3-0.4,1.3-1c0-0.6-0.5-1-1.4-1.4l-1.2-0.6c-0.9-0.4-1.5-1.1-1.5-2.1c0-1,1-1.9,2.3-1.9c0.7,0,1.3,0.3,1.7,0.6
		c0.1-0.1,0.2-0.3,0.3-0.6h0.4v2.6h-0.5c-0.2-1-0.7-1.9-1.9-1.9c-0.6,0-1.2,0.3-1.2,0.9c0,0.6,0.5,0.9,1.5,1.4l1.2,0.6
		c1,0.5,1.5,1.3,1.5,2C106.5,97.9,105.3,98.8,103.8,98.8z"/>
	<path class="st5" d="M110.5,98.8c-0.9,0-1.6-0.5-2-0.7c-0.1,0.1-0.3,0.4-0.3,0.7h-0.4v-3h0.4c0.2,1.4,1.2,2.3,2.5,2.3
		c0.7,0,1.3-0.4,1.3-1c0-0.6-0.5-1-1.4-1.4l-1.2-0.6c-0.9-0.4-1.5-1.1-1.5-2.1c0-1,1-1.9,2.3-1.9c0.7,0,1.3,0.3,1.7,0.6
		c0.1-0.1,0.2-0.3,0.3-0.6h0.4v2.6h-0.5c-0.2-1-0.7-1.9-1.9-1.9c-0.6,0-1.2,0.3-1.2,0.9c0,0.6,0.5,0.9,1.5,1.4l1.2,0.6
		c1,0.5,1.5,1.3,1.5,2C113.2,97.9,112,98.8,110.5,98.8z"/>
	<g>
		<path class="st5" d="M15.7,93.7c0,3.8,2.2,7.1,5.4,8.7l-4.6-12.6C16,91,15.7,92.3,15.7,93.7z"/>
		<path class="st5" d="M31.9,93.2c0-1.2-0.4-2-0.8-2.7c-0.5-0.8-0.9-1.5-0.9-2.3c0-0.9,0.7-1.7,1.6-1.7c0,0,0.1,0,0.1,0
			c-1.7-1.6-4-2.5-6.5-2.5c-3.4,0-6.3,1.7-8.1,4.3c0.2,0,0.4,0,0.6,0c1,0,2.6-0.1,2.6-0.1c0.5,0,0.6,0.7,0.1,0.8
			c0,0-0.5,0.1-1.1,0.1L23,99.6l2.1-6.3l-1.5-4.1c-0.5,0-1-0.1-1-0.1c-0.5,0-0.5-0.8,0.1-0.8c0,0,1.6,0.1,2.5,0.1
			c1,0,2.6-0.1,2.6-0.1c0.5,0,0.6,0.7,0.1,0.8c0,0-0.5,0.1-1.1,0.1l3.5,10.4l1-3.2C31.6,95,31.9,94,31.9,93.2z"/>
		<path class="st5" d="M25.5,94.5l-2.9,8.4c0.9,0.3,1.8,0.4,2.7,0.4c1.1,0,2.2-0.2,3.2-0.5c0,0,0-0.1-0.1-0.1L25.5,94.5z"/>
		<path class="st5" d="M33.8,89.1c0,0.3,0.1,0.6,0.1,1c0,1-0.2,2.1-0.7,3.5l-2.9,8.5c2.9-1.7,4.8-4.8,4.8-8.3
			C35,92,34.6,90.4,33.8,89.1z"/>
		<path class="st5" d="M25.4,82.5c-6.2,0-11.2,5-11.2,11.2c0,6.2,5,11.2,11.2,11.2c6.2,0,11.2-5,11.2-11.2
			C36.6,87.5,31.6,82.5,25.4,82.5z M25.4,104.4c-5.9,0-10.7-4.8-10.7-10.7c0-5.9,4.8-10.7,10.7-10.7c5.9,0,10.7,4.8,10.7,10.7
			C36.1,99.6,31.3,104.4,25.4,104.4z"/>
	</g>
</g>
<g>
	<path class="st6" d="M58.5,60.2h4.7v-5.3h0.9v5.3h4.7V61h-4.7v5.3h-0.9V61h-4.7V60.2z"/>
</g>
</svg>
